<?xml version="1.0" standalone="no"?>
<!DOCTYPE svg PUBLIC "-//W3C//DTD SVG 1.1//EN" "http://www.w3.org/Graphics/SVG/1.1/DTD/svg11.dtd">
<svg xmlns="http://www.w3.org/2000/svg">
<defs >
<font id="BigShouldersStencilDisplay" horiz-adv-x="551" ><font-face
    font-family="Big Shoulders Stencil Display Thin"
    units-per-em="2000"
    panose-1="0 0 0 0 0 0 0 0 0 0"
    ascent="1968"
    descent="-426"
    alphabetic="0" />
<glyph unicode=" " horiz-adv-x="427" />
<glyph unicode="!" horiz-adv-x="455" d="M149 378L118 1209V1600H338V1209L307 378H149ZM86 0V229H368V0H86Z" />
<glyph unicode="&quot;" horiz-adv-x="672" d="M126 1111L86 1361V1600H269V1361L230 1111H126ZM442 1111L403 1361V1600H585V1361L546 1111H442Z" />
<glyph unicode="#" horiz-adv-x="1297" d="M144 0L248 432H60L104 610H284L379 975H191L234 1154H416L526 1600H741L359 0H144ZM560 0L663 432H558L596 610H700L795 975H689L726 1154H831L942 1600H1157L1046 1154H1235L1194 975H1010L915 610H1101L1057 432H878L775
0H560Z" />
<glyph unicode="$" horiz-adv-x="815" d="M242 1550V1819H362V1550H242ZM456 1550V1819H576V1550H456ZM243 -202V80H363V-202H243ZM457 -202V80H576V-202H457ZM363 -16Q209 -6 143 72T70 316Q69 363 69 407T69 497T75 589H279Q275 509 275 429T279 278Q282 231
302 203T363 166V-16ZM457 -15V167Q494 177 512 204T534 278Q537 323 538 362T538 441T534 529Q530 588 510 630T437 686L303 720Q213 743 162 787T89 901T64 1066Q63 1120 63 1176T65 1287Q71 1452 138 1529T362 1616V1434Q323 1425 304 1398T281 1324Q276 1260
276 1195T281 1066Q285 1002 306 963T382 910L503 881Q598 859 651 813T726 696T751 529Q753 487 753 453T752 387T750 316Q743 150 676 72T457 -15ZM533 1023Q536 1098 536 1173T534 1324Q533 1369 514 1396T456 1433V1615Q603 1606 670 1529T744 1286Q746 1237
745 1166T741 1023H533Z" />
<glyph unicode="%" horiz-adv-x="1178" d="M103 0L933 1600H1085L254 0H103ZM928 -7V133Q939 144 942 166Q944 202 945 252T947 357T946 465T942 556Q939 577 928 588V727Q1007 717 1050 667T1099 531Q1100 489 1100 446T1101 359T1101 274T1099 192Q1094 107
1051 56T928 -7ZM848 -7Q769 4 725 55T678 192Q677 246 677 302T676 417T678 531Q682 616 724 666T848 727V588Q835 576 834 556Q831 503 830 430T830 286T834 166Q836 146 848 135V-7ZM333 871V1011Q344 1022 347 1044Q350 1080 351 1130T352 1235T351 1343T347
1434Q345 1455 333 1466V1605Q413 1595 456 1545T504 1409Q506 1367 506 1324T507 1237T507 1152T504 1070Q500 985 457 934T333 871ZM253 871Q174 882 131 933T84 1070Q83 1124 83 1180T82 1295T84 1409Q87 1494 130 1544T253 1605V1466Q241 1454 240 1434Q237
1381 236 1308T235 1164T240 1044Q242 1024 253 1013V871Z" />
<glyph unicode="&amp;" horiz-adv-x="1087" d="M854 -4Q765 98 671 220T488 475T327 746T207 1017T150 1271Q134 1418 195 1510T402 1615V1459Q368 1442 354 1402T342 1305Q345 1212 380 1105T473 886T600 663T742 452T881 268T995 128L854 -4ZM410 -15Q251 -7
178 71T99 315Q98 362 98 392T98 448T101 505T106 582Q111 669 142 729T218 836Q242 787 270 736T331 635Q326 619 322 605T315 571Q311 534 309 501T306 423T308 309Q311 247 335 210T410 161V-15ZM504 -15V160Q542 167 560 188T589 241Q621 203 653 164T718 88Q685
40 632 16T504 -15ZM824 427Q773 489 726 554T643 673Q642 711 639 742T631 809L806 810Q816 727 821 626T824 427ZM544 857Q515 904 493 945T454 1026Q490 1076 513 1119T547 1202T561 1283Q569 1356 556 1402T496 1464V1615Q638 1603 700 1519T749 1283Q744 1205
721 1136T653 999T544 857Z" />
<glyph unicode="&apos;" horiz-adv-x="356" d="M126 1111L86 1361V1600H269V1361L230 1111H126Z" />
<glyph unicode="(" horiz-adv-x="525" d="M308 -400Q232 -279 177 -118T91 228T60 607Q60 783 87 964T169 1310T308 1600H465Q374 1372 327 1114T280 600Q280 430 301 256T364 -84T465 -400H308Z" />
<glyph unicode=")" horiz-adv-x="525" d="M217 -400H60Q120 -251 161 -85T223 256T244 600Q244 855 198 1113T60 1600H217Q301 1475 356 1311T438 965T465 607Q465 413 435 228T349 -118T217 -400Z" />
<glyph unicode="*" horiz-adv-x="509" d="M44 1325L181 1392L44 1459L91 1541L217 1456L207 1608H302L291 1457L418 1541L466 1459L329 1392L466 1325L418 1243L291 1329L302 1176H207L217 1327L91 1243L44 1325Z" />
<glyph unicode="+" horiz-adv-x="975" d="M406 350V663H93V827H406V1140H570V827H882V663H570V350H406Z" />
<glyph unicode="," horiz-adv-x="456" d="M121 -244L221 0H86V232H370V22L240 -244H121Z" />
<glyph unicode="-" horiz-adv-x="763" d="M60 642V834H703V642H60Z" />
<glyph unicode="." horiz-adv-x="455" d="M86 0V229H368V0H86Z" />
<glyph unicode="/" horiz-adv-x="736" d="M60 -400L460 1600H676L276 -400H60Z" />
<glyph unicode="0" horiz-adv-x="879" d="M96 314Q94 471 93 636T93 966T96 1287Q100 1436 176 1519T393 1615V1433Q317 1413 314 1325Q311 1191 309 1056T307 786T309 524T314 276Q317 187 393 167V-15Q252 -3 176 81T96 314ZM487 -15V167Q562 187 566 276Q571
457 573 639T573 995T566 1325Q563 1413 487 1433V1615Q626 1602 701 1518T780 1287Q783 1169 785 1046T787 799T785 553T780 314Q777 167 702 83T487 -15Z" />
<glyph unicode="1" horiz-adv-x="473" d="M164 0V1395H79L73 1475L209 1600H380V0H164Z" />
<glyph unicode="2" horiz-adv-x="848" d="M98 0Q97 40 97 73T96 136T95 193T95 250T96 313Q98 434 128 522T215 674T352 787L463 857Q525 901 543 956T564 1064Q568 1129 568 1194T564 1324Q561 1371 541 1398T479 1434V1616Q639 1607 706 1530T780 1287Q781 1262
782 1234T783 1176T783 1118T781 1064Q777 968 750 897T671 769T543 664L419 587Q380 560 357 515T324 417T314 313V0H98ZM98 1023Q97 1068 96 1115T94 1206T95 1286Q101 1450 169 1528T386 1616V1433Q348 1423 330 1396T311 1324Q309 1249 309 1174T312 1023H98ZM408
0V192H766V0H408Z" />
<glyph unicode="3" horiz-adv-x="873" d="M72 316Q71 355 71 388T70 457T72 542H288V289Q288 186 376 166V-15Q219 -5 148 73T72 316ZM84 1408V1600H768V1408H84ZM469 166Q553 186 555 289Q558 361 558 443T555 593Q552 662 522 703T405 742L255 741L248 923L490
1335H721L484 930H494Q635 930 699 845T771 595Q773 552 773 514T774 442T774 377T771 316Q764 149 694 71T469 -16V166Z" />
<glyph unicode="4" horiz-adv-x="936" d="M60 446V625L213 1120H403L268 636H385V446H60ZM479 0V1600H682V0H479ZM776 446V636H878V446H776Z" />
<glyph unicode="5" horiz-adv-x="892" d="M94 316Q92 380 92 432T95 542H311Q308 503 308 458T307 368T310 289Q314 236 335 205T402 165V-15Q243 -6 171 72T94 316ZM114 701V1600H330V701H114ZM424 815V961Q449 978 482 989T554 1000Q672 1000 730 923T795 707Q798
636 798 570T798 440T793 316Q779 150 713 72T496 -16V168Q535 179 554 209T576 289Q584 397 584 498T578 703Q575 762 545 790T457 819Q448 819 440 818T424 815ZM424 1408V1600H776V1408H424Z" />
<glyph unicode="6" horiz-adv-x="865" d="M96 315Q94 441 93 571T92 829T93 1072T96 1285Q98 1443 175 1523T389 1615V1433Q351 1423 332 1396T312 1323Q310 1166 309 995T309 643T312 277Q312 231 331 203T389 166V-16Q234 -7 166 71T96 315ZM399 796V939Q427
960 463 971T541 983Q677 983 729 916T784 691Q786 621 786 558T786 435T783 315Q775 149 706 72T483 -16V166Q524 175 545 203T567 277Q569 333 569 386T570 491T570 590T568 686Q567 745 536 774T447 803Q434 803 422 801T399 796ZM559 1097Q561 1133 561 1166T562
1237T559 1323Q557 1368 539 1395T482 1432V1614Q622 1602 695 1520T775 1285Q775 1261 775 1227T775 1159T773 1097H559Z" />
<glyph unicode="7" horiz-adv-x="816" d="M53 1408V1600H756V1408H53ZM147 0L516 1323H734L372 0H147Z" />
<glyph unicode="8" horiz-adv-x="866" d="M89 316Q88 350 88 387T89 468T92 564Q99 661 134 716T241 802V838Q189 859 153 903T106 1020Q101 1064 99 1112T96 1205T96 1285Q103 1450 170 1528T385 1615V1433Q345 1423 326 1393T305 1312Q305 1278 305 1246T304
1182T304 1118T305 1053Q306 1000 325 969T385 927V710Q345 700 326 669T305 585Q304 509 304 437T305 289Q306 238 325 208T385 167V-15Q235 -6 166 72T89 316ZM479 -15V166Q520 177 539 207T559 289Q560 340 560 388T560 486T559 585Q557 690 479 710V927Q558
948 559 1053Q559 1120 559 1182T559 1312Q558 1363 539 1393T479 1434V1615Q626 1606 693 1528T768 1285Q770 1250 769 1205T766 1112T759 1020Q747 948 712 904T624 840V803Q689 771 725 715T772 564Q777 485 777 427T775 316Q768 150 699 72T479 -15Z" />
<glyph unicode="9" horiz-adv-x="864" d="M78 914Q78 970 78 1024T77 1128T77 1218T79 1284Q86 1450 156 1528T381 1615V1434Q296 1415 296 1322Q296 1301 296 1246T295 1123T294 995T294 906Q296 848 331 819T424 790Q435 790 445 791T465 795V645Q442 628 411
619T341 609Q270 609 211 640T115 738T78 914ZM101 314Q101 338 101 372T101 441T103 502H317Q316 448 316 394T317 276Q319 234 333 207T381 169V-15Q233 -4 168 73T101 314ZM474 -16V165Q513 173 531 201T550 276Q554 409 555 534T557 786T555 1044T550 1322Q549
1368 530 1395T474 1432V1615Q628 1605 695 1527T766 1284Q770 1110 770 948T770 629T766 314Q763 147 693 70T474 -16Z" />
<glyph unicode=":" horiz-adv-x="455" d="M86 600V829H368V600H86ZM86 0V229H368V0H86Z" />
<glyph unicode=";" horiz-adv-x="456" d="M121 -244L221 0H86V232H370V22L240 -244H121ZM86 602V831H368V602H86Z" />
<glyph unicode="&lt;" horiz-adv-x="997" d="M904 488L93 616V885L904 1017V839L506 789L255 775V727L506 713L904 666V488Z" />
<glyph unicode="=" horiz-adv-x="935" d="M93 820V985H842V820H93ZM93 508V673H842V508H93Z" />
<glyph unicode="&gt;" horiz-adv-x="997" d="M93 488V666L491 713L742 727V775L492 789L93 839V1017L904 885V616L93 488Z" />
<glyph unicode="?" horiz-adv-x="803" d="M297 380L291 566Q288 638 298 687T340 774T429 846L466 865Q491 879 503 904T518 967T522 1053V1325Q522 1372 503 1399T443 1435V1617Q600 1608 669 1531T738 1288Q738 1221 738 1179T739 1109T739 1053Q738 956 723
895T685 800T632 746T570 711L527 689Q487 670 479 635T468 565L460 380H297ZM67 1024Q66 1064 66 1107T65 1196T66 1287Q72 1452 138 1529T349 1616V1434Q315 1424 298 1397T278 1325Q274 1249 274 1174T277 1024H67ZM239 0V229H521V0H239Z" />
<glyph unicode="@" horiz-adv-x="1213" d="M559 -278Q319 -271 210 -184T98 96Q96 225 95 344T93 580T94 822T98 1085Q101 1285 210 1376T559 1474V1329Q407 1322 340 1267T269 1093Q265 963 264 837T262 586T263 338T269 86Q273 -24 340 -75T559 -133V-278ZM653
-278V-133Q802 -126 870 -74T939 90Q939 103 939 111T938 137H1105Q1106 118 1106 109T1106 90Q1105 -99 999 -185T653 -278ZM514 194Q443 194 408 241T365 399Q362 465 361 540T361 688T365 819Q371 930 409 977T517 1025Q547 1025 567 1016T603 986V897Q597 899
592 900T584 901Q559 901 547 884T533 834Q530 759 529 686T529 539T535 385Q537 347 548 332T584 317Q588 317 593 318T603 320V233Q588 214 567 204T514 194ZM891 194Q790 194 728 232T665 346V1011H834L835 373Q835 340 849 323T891 306Q916 306 929 323T945
375Q948 443 949 523T951 694T951 885T947 1093Q942 1210 875 1266T653 1329V1474Q890 1467 1000 1376T1116 1083Q1118 975 1118 881T1119 701T1118 535T1115 369Q1112 281 1054 238T891 194Z" />
<glyph unicode="A" horiz-adv-x="830" d="M32 0L228 1600H605L629 1408H389L357 915L319 591H459L409 399H305L254 0H32ZM576 0L477 917L454 1328H634L798 0H576Z" />
<glyph unicode="B" horiz-adv-x="846" d="M93 0V1600H309V0H93ZM403 0V192H424Q489 192 521 225T555 327Q556 383 556 433T555 540Q554 634 523 674T420 714H403V906H423Q488 906 520 947T554 1068Q556 1126 556 1178T554 1287Q553 1348 521 1378T424 1408H403V1600H424Q604
1600 686 1525T770 1276Q771 1212 771 1162T769 1063Q765 967 730 911T619 829V787Q696 761 732 705T771 550Q773 489 773 438T771 324Q764 151 684 76T424 0H403Z" />
<glyph unicode="C" horiz-adv-x="839" d="M380 -16Q222 -7 155 70T85 315Q83 427 82 550T81 800T82 1050T85 1287Q87 1433 157 1518T380 1614V1433Q341 1425 322 1398T301 1323Q297 1196 296 1065T294 800T295 535T301 277Q303 229 321 202T380 165V-16ZM474 -16V166Q514
175 534 202T555 277Q556 322 556 377T556 488T554 588H771Q773 522 773 452T772 315Q766 150 697 72T474 -16ZM546 1022Q547 1066 547 1119T548 1225T547 1323Q546 1369 528 1396T474 1432V1614Q623 1604 690 1527T764 1285Q765 1250 765 1202T764 1106T762 1022H546Z"
/>
<glyph unicode="D" horiz-adv-x="855" d="M93 0V1600H309V0H93ZM403 0V192H423Q489 192 521 222T554 315Q557 437 558 558T559 801T558 1043T554 1287Q553 1348 521 1378T424 1408H403V1600H424Q605 1600 686 1522T770 1262Q773 1097 774 949T774 653T770 339Q767
158 686 79T423 0H403Z" />
<glyph unicode="E" horiz-adv-x="709" d="M93 0V1600H309V0H93ZM401 0V192H664V0H401ZM401 714V906H644V714H401ZM401 1408V1600H664V1408H401Z" />
<glyph unicode="F" horiz-adv-x="700" d="M93 0V1600H309V0H93ZM396 714V906H644V714H396ZM396 1408V1600H664V1408H396Z" />
<glyph unicode="G" horiz-adv-x="842" d="M381 -15Q225 -6 158 72T86 316Q83 426 82 548T81 796T82 1043T86 1274Q92 1448 159 1527T381 1615V1433Q343 1424 324 1397T302 1324Q298 1199 296 1067T293 801T295 535T302 278Q304 232 323 204T381 167V-15ZM474 -16V166Q515
175 536 203T561 278Q562 316 562 362T563 454T561 539H439V728H772Q775 644 775 538T770 316Q763 150 694 72T474 -16ZM549 1023Q552 1091 552 1173T549 1324Q547 1369 529 1396T474 1432V1615Q620 1606 687 1528T765 1286Q768 1224 768 1155T765 1023H549Z" />
<glyph unicode="H" horiz-adv-x="851" d="M93 0V1600H309V0H93ZM222 714V906H482L431 714H222ZM542 0V1600H758V0H542Z" />
<glyph unicode="I" horiz-adv-x="402" d="M93 0V1600H309V0H93Z" />
<glyph unicode="J" horiz-adv-x="781" d="M326 -16Q174 -6 113 72T47 316Q45 382 45 452T47 589H251Q249 544 249 489T248 378T251 278Q253 231 270 204T326 166V-16ZM420 -16V167Q457 176 473 203T490 278V1600H706V316Q706 149 642 72T420 -16Z" />
<glyph unicode="K" horiz-adv-x="842" d="M93 0V833H327L439 1235L566 1600H803L313 343V0H93ZM601 0L458 496L584 803L821 0H601ZM93 909V1600H323L320 1233L281 909H93Z" />
<glyph unicode="L" horiz-adv-x="691" d="M93 0V1600H309V0H93ZM403 0V192H666V0H403Z" />
<glyph unicode="M" horiz-adv-x="1296" d="M507 3L421 475L336 1408H93V1600H484L580 999L626 195H670L715 1003L812 1600H1204V1408H961L876 473L789 3H507ZM93 0V1324H262L309 451V0H93ZM987 0V448L1036 1324H1204V0H987Z" />
<glyph unicode="N" horiz-adv-x="946" d="M501 0L399 549L299 1409H93V1600H431L526 1092L650 192H853V0H501ZM93 0V1325H240L285 552L302 0H93ZM706 277L653 1075L643 1600H853V277H706Z" />
<glyph unicode="O" horiz-adv-x="856" d="M382 -16Q227 -7 158 70T85 314Q83 434 82 556T81 800T82 1044T85 1287Q89 1452 158 1529T382 1616V1434Q342 1425 323 1399T302 1325Q298 1203 296 1071T294 803T296 534T302 276Q304 229 323 202T382 166V-16ZM475 -16V166Q515
175 534 202T554 276Q558 400 560 533T562 803T560 1071T554 1325Q553 1372 534 1398T475 1434V1616Q629 1606 697 1529T769 1287Q773 1165 774 1043T776 799T775 556T769 314Q765 149 697 72T475 -16Z" />
<glyph unicode="P" horiz-adv-x="816" d="M93 0V1600H309V0H93ZM403 567V759H417Q483 759 514 789T549 880Q552 944 553 1014T553 1153T549 1287Q546 1348 515 1378T418 1408H403V1600H418Q598 1600 678 1525T765 1276Q769 1167 769 1078T765 891Q759 718 679
643T417 567H403Z" />
<glyph unicode="Q" horiz-adv-x="856" d="M85 314Q83 434 82 556T81 800T82 1044T85 1287Q89 1452 158 1529T382 1616V1434Q342 1425 323 1399T302 1325Q298 1203 296 1071T294 803T296 534T302 276Q304 229 323 202T382 166V-16Q227 -7 158 70T85 314ZM337 -42H549Q562
-71 589 -83T661 -91V-265Q513 -276 436 -224T337 -42ZM475 -16V166Q515 175 534 202T554 276Q558 400 560 533T562 803T560 1071T554 1325Q553 1372 534 1398T475 1434V1616Q629 1606 697 1529T769 1287Q773 1165 774 1043T776 799T775 556T769 314Q765 149 697
72T475 -16Z" />
<glyph unicode="R" horiz-adv-x="842" d="M573 0L425 576H396V767H417Q483 767 514 797T549 889Q552 953 553 1020T553 1155T549 1287Q546 1348 515 1378T418 1408H403V1600H418Q598 1600 678 1525T765 1276Q768 1203 768 1143T769 1024T765 900Q757 682 624 616L798
0H573ZM93 0V1600H309V0H93Z" />
<glyph unicode="S" horiz-adv-x="815" d="M363 -16Q209 -6 143 72T70 316Q69 363 69 407T69 497T75 589H279Q275 509 275 429T279 278Q282 231 302 203T363 166V-16ZM457 -15V167Q494 177 512 204T534 278Q537 323 538 362T538 441T534 529Q530 588 510 630T437
686L303 720Q213 743 162 787T89 901T64 1066Q63 1120 63 1176T65 1287Q71 1452 138 1529T362 1616V1434Q323 1425 304 1398T281 1324Q276 1260 276 1195T281 1066Q285 1002 306 963T382 910L503 881Q598 859 651 813T726 696T751 529Q753 487 753 453T752 387T750
316Q743 150 676 72T457 -15ZM533 1023Q536 1098 536 1173T534 1324Q533 1369 514 1396T456 1433V1615Q603 1606 670 1529T744 1286Q746 1237 745 1166T741 1023H533Z" />
<glyph unicode="T" horiz-adv-x="699" d="M242 0V1328H458V0H242ZM11 1408V1600H688V1408H11Z" />
<glyph unicode="U" horiz-adv-x="839" d="M79 314Q75 634 75 957T79 1600H295Q292 1387 291 1163T291 714T294 276Q294 230 314 203T373 166V-16Q218 -6 150 71T79 314ZM467 -16V166Q506 176 525 203T544 276Q546 489 547 713T548 1162T544 1600H760Q765 1281
765 958T760 314Q758 149 690 72T467 -16Z" />
<glyph unicode="V" horiz-adv-x="843" d="M35 1600H259L361 753L395 260H205L35 1600ZM219 192H448L483 753L584 1600H809L603 0H246L219 192Z" />
<glyph unicode="W" horiz-adv-x="1359" d="M799 0L742 486L703 1405H660L621 486L598 263H401L431 933L526 1590H838L932 933L959 192H1190L1171 0H799ZM180 0L49 1600H267L311 933L347 192H582L553 0H180ZM1011 263L1050 933L1092 1600H1309L1199 263H1011Z" />
<glyph unicode="X" horiz-adv-x="822" d="M35 0L211 659H377L344 395L246 0H35ZM55 1600H267L359 1224L399 911H541L779 0H568L472 395L430 719H300L55 1600ZM454 971L484 1224L574 1600H785L629 971H454Z" />
<glyph unicode="Y" horiz-adv-x="806" d="M287 0V400V402L28 1600H249L328 1180L377 716H573L503 402V400V0H287ZM431 784L477 1180L556 1600H778L599 784H431Z" />
<glyph unicode="Z" horiz-adv-x="716" d="M34 0V192H648V0H34ZM57 1408V1600H681V1408H57ZM63 252L423 1348H651L279 252H63Z" />
<glyph unicode="[" horiz-adv-x="604" d="M93 -400V1600H544V1492H309V-292H544V-400H93Z" />
<glyph unicode="\" horiz-adv-x="736" d="M676 -400H460L60 1600H276L676 -400Z" />
<glyph unicode="]" horiz-adv-x="604" d="M525 -400H74V-292H309V1492H74V1600H525V-400Z" />
<glyph unicode="^" horiz-adv-x="782" d="M93 897L319 1379H463L689 897H546L392 1230L237 897H93Z" />
<glyph unicode="_" horiz-adv-x="1312" d="M60 -80H1252V-120H60V-80Z" />
<glyph unicode="`" horiz-adv-x="490" d="M249 1280L89 1532H246L399 1280H249Z" />
<glyph unicode="a" horiz-adv-x="823" d="M67 242Q66 264 66 290T66 338Q71 414 97 471T177 573T322 659Q348 671 373 681T423 702V556Q412 550 400 543T375 526Q320 493 302 445T280 338Q279 319 279 299T280 259Q285 203 312 174T387 144Q405 144 423 150V28Q379
-14 301 -14Q186 -14 132 46T67 242ZM97 765Q96 789 95 837T95 922Q101 1065 162 1136T370 1216V1048Q339 1041 324 1017T307 946Q306 927 306 893T305 824T307 765H97ZM517 0V939Q517 981 505 1007T464 1043V1216Q616 1206 674 1129T732 890L730 0H517Z" />
<glyph unicode="b" horiz-adv-x="861" d="M96 0V1600H312V0H96ZM405 27V155Q420 150 435 147T466 144Q516 144 538 170T563 253Q567 327 568 412T570 589T569 772T563 947Q561 1004 539 1030T466 1056Q435 1056 405 1045V1158Q432 1187 466 1202T554 1217Q664
1217 718 1151T779 929Q781 858 782 772T784 596T783 422T779 271Q773 117 712 50T541 -17Q494 -17 462 -6T405 27Z" />
<glyph unicode="c" horiz-adv-x="799" d="M81 283Q79 340 78 422T77 595T78 770T81 914Q91 1065 156 1135T363 1216V1047Q329 1039 314 1016T298 946Q296 857 295 772T294 602T295 434T298 261Q299 213 314 188T363 154V-16Q220 -5 155 64T81 283ZM456 -16V153Q488
163 503 188T520 261Q521 292 521 337T519 439H730Q732 411 733 365T732 283Q725 134 661 64T456 -16ZM519 765Q520 790 520 825T521 893T520 946Q518 992 503 1015T456 1046V1216Q598 1206 662 1137T732 922Q733 886 733 840T730 765H519Z" />
<glyph unicode="d" horiz-adv-x="861" d="M81 271Q79 337 78 421T77 596T78 772T81 929Q88 1084 146 1150T314 1217Q364 1217 397 1204T455 1166V1045Q426 1056 395 1056Q346 1056 323 1030T298 947Q293 835 292 712T292 471T298 253Q300 196 322 170T395 144Q426
144 455 155V35Q429 10 395 -3T311 -17Q201 -17 145 50T81 271ZM549 0V1600H765V0H549Z" />
<glyph unicode="e" horiz-adv-x="801" d="M81 283Q79 340 78 422T77 595T78 770T81 914Q91 1065 156 1135T363 1215V1047Q330 1038 315 1014T298 946Q296 857 295 772T294 603T295 435T298 261Q299 213 314 188T363 154V-16Q220 -5 155 64T81 283ZM457 -16V153Q488
163 502 188T520 261Q522 292 522 337T519 439H730Q732 411 733 365T732 283Q725 134 661 64T457 -16ZM381 561V713H521Q522 767 522 813T522 894T520 946Q517 988 502 1012T457 1046V1215Q597 1206 660 1137T732 922Q733 896 733 839T734 708T730 561H381Z" />
<glyph unicode="f" horiz-adv-x="575" d="M18 1034V1200H131V1320Q131 1480 211 1549T460 1619Q491 1619 526 1615T593 1605V1445Q562 1447 529 1448T461 1449Q403 1449 375 1422T347 1336L348 0H132L131 1034H18ZM434 1034V1200H552V1034H434Z" />
<glyph unicode="g" horiz-adv-x="864" d="M355 -363Q226 -355 159 -312T79 -197Q76 -182 75 -167T76 -137Q82 -86 113 -52T206 -7V26Q94 48 85 136Q82 154 82 162T85 186Q89 227 122 258T208 297V330Q139 362 106 427T66 599Q65 646 64 683T63 756T64 830T66 914Q76
1065 143 1136T355 1216V1047Q316 1038 297 1012T276 939Q274 876 273 813T273 690T276 574Q278 527 297 501T355 465V294Q302 289 280 273T257 229Q257 227 257 225T257 220Q257 192 278 179T355 159V6Q308 1 278 -18T242 -76Q239 -89 239 -102T242 -129Q248 -167
278 -185T355 -208V-363ZM449 -363V-213Q519 -211 558 -191T606 -125Q612 -111 612 -98T605 -70Q596 -26 558 -9T449 10V155Q608 149 689 96T786 -66Q788 -80 789 -99T786 -141Q771 -260 678 -309T449 -363ZM449 297V465Q486 474 505 500T527 574Q530 629 530 689T531
813T527 939Q525 986 506 1012T449 1047V1216Q631 1204 693 1090H724Q730 1145 764 1172T862 1200V1034H837Q787 1034 763 1004T739 909V855Q739 806 739 767T740 688T737 599Q729 449 662 378T449 297Z" />
<glyph unicode="h" horiz-adv-x="873" d="M96 0V1600H312V0H96ZM566 0V947Q566 1004 541 1030T466 1056Q433 1056 404 1044V1156Q431 1186 465 1201T554 1217Q664 1217 723 1151T782 929V0H566Z" />
<glyph unicode="i" horiz-adv-x="407" d="M77 1407V1600H332V1407H77ZM96 0V1200H312V0H96Z" />
<glyph unicode="j" horiz-adv-x="428" d="M74 1407V1600H329V1407H74ZM-17 -418Q-47 -418 -83 -414T-150 -405V-242Q-124 -245 -86 -246T-18 -248Q40 -248 68 -221T97 -135V1200H313V-119Q313 -278 233 -348T-17 -418Z" />
<glyph unicode="k" horiz-adv-x="776" d="M96 0V701H311L396 941L507 1200H731L303 326V0H96ZM96 765V1600H298V1262L278 765H96ZM409 399L541 634L774 0H552L409 399Z" />
<glyph unicode="l" horiz-adv-x="408" d="M96 0V1600H312V0H96Z" />
<glyph unicode="m" horiz-adv-x="1334" d="M96 0V1200H312V0H96ZM1027 0L1025 947Q1024 1004 1001 1030T928 1056Q898 1056 873 1045V1165Q900 1189 935 1203T1016 1217Q1125 1217 1182 1151T1241 929L1244 0H1027ZM566 0L563 947Q563 1004 540 1030T466 1056Q450
1056 435 1054T405 1045V1158Q432 1187 466 1202T554 1217Q664 1217 720 1151T779 929L782 0H566Z" />
<glyph unicode="n" horiz-adv-x="873" d="M96 0V1200H312V0H96ZM566 0V947Q565 1004 541 1030T466 1056Q450 1056 435 1053T405 1043V1157Q432 1186 466 1201T554 1217Q664 1217 722 1151T782 929V0H566Z" />
<glyph unicode="o" horiz-adv-x="835" d="M82 314Q80 371 79 445T77 598T78 752T82 887Q91 1052 154 1129T370 1216V1046Q333 1037 317 1011T298 939Q296 851 295 767T293 600T294 433T298 262Q300 215 317 189T370 154V-16Q218 -6 155 71T82 314ZM464 -16V153Q501
162 518 188T536 262Q539 350 540 434T542 601T541 767T536 939Q535 987 519 1012T464 1047V1216Q567 1210 628 1174T718 1067T753 887Q755 829 756 756T757 603T756 449T753 314Q747 204 719 133T629 26T464 -16Z" />
<glyph unicode="p" horiz-adv-x="861" d="M96 -400V1200H312V-400H96ZM405 151Q415 148 427 146T452 144Q503 144 532 170T563 253Q567 338 568 427T570 606T568 783T563 947Q561 1004 539 1030T466 1056Q434 1056 405 1045V1166Q430 1191 463 1204T547 1217Q657
1217 715 1151T779 929Q781 872 782 787T784 607T783 424T779 271Q773 117 710 50T536 -17Q458 -17 405 36V151Z" />
<glyph unicode="q" horiz-adv-x="861" d="M81 271Q80 328 79 413T77 592T78 775T81 929Q88 1084 146 1150T313 1217Q364 1217 397 1204T455 1166V1045Q426 1056 395 1056Q345 1056 323 1030T298 947Q293 831 292 709T291 470T298 253Q300 196 329 170T408 144Q421
144 433 145T455 151V33Q403 -17 327 -17Q218 -17 153 50T81 271ZM549 -400V1200H765V-400H549Z" />
<glyph unicode="r" horiz-adv-x="619" d="M96 0V1200H312V0H96ZM405 1019V1175Q442 1205 509 1205Q530 1205 550 1204T583 1202V1034H511Q447 1034 405 1019Z" />
<glyph unicode="s" horiz-adv-x="759" d="M69 283Q68 319 68 365T71 439H261Q260 383 260 338T261 261Q262 213 278 188T326 154V-16Q191 -6 133 64T69 283ZM420 -16V152Q460 160 477 185T496 261Q496 288 496 301T496 327T496 365Q496 417 480 447T421 491L303
527Q224 552 171 588T92 683T64 829Q64 851 64 871T65 913Q66 1064 127 1135T337 1216V1047Q304 1040 291 1016T276 946Q275 917 274 900T274 846Q274 790 288 754T354 702L460 673Q579 643 638 576T697 376Q697 353 697 327T695 277Q694 131 631 62T420 -16ZM488
765Q489 790 489 825T490 893T488 946Q487 991 474 1014T431 1046V1216Q567 1206 624 1137T687 922Q687 899 687 869T687 811T685 765H488Z" />
<glyph unicode="t" horiz-adv-x="573" d="M27 1034V1200H126V1540H342V259Q342 196 364 172T464 147Q490 147 510 148T555 151V-7Q535 -12 512 -14T463 -17Q278 -17 202 53T126 283V1034H27ZM427 1034V1200H535V1034H427Z" />
<glyph unicode="u" horiz-adv-x="857" d="M78 271V1200H294V253Q294 196 317 170T391 144Q421 144 451 157V36Q395 -17 311 -17Q202 -17 140 50T78 271ZM545 0V1200H761V0H545Z" />
<glyph unicode="v" horiz-adv-x="759" d="M28 1200H248L323 596L345 249H164L28 1200ZM183 162H405L435 596L511 1200H731L557 0H207L183 162Z" />
<glyph unicode="w" horiz-adv-x="1292" d="M740 0L698 464L668 1035H622L592 464L569 249H401L416 596L475 1197H816L874 596L899 162H1119L1096 0H740ZM187 0L37 1200H256L314 596L338 162H558L543 0H187ZM962 249L977 596L1036 1200H1255L1134 249H962Z" />
<glyph unicode="x" horiz-adv-x="707" d="M478 0L406 307L375 555H224L24 1200H233L298 946L332 714H479L688 0H478ZM20 0L163 461H321L303 307L229 0H20ZM389 807L409 946L474 1200H684L547 807H389Z" />
<glyph unicode="y" horiz-adv-x="790" d="M246 0L55 1200H274L339 636L385 162H601L576 0H246ZM203 -414Q173 -414 137 -411T70 -402V-239Q95 -241 134 -243T202 -245Q276 -245 309 -221T341 -138L348 -92H561L555 -138Q550 -237 511 -298T396 -386T203 -414ZM442
255L474 636L531 1200H751L615 255H442Z" />
<glyph unicode="z" horiz-adv-x="681" d="M38 0V162H637V0H38ZM46 1037V1199L644 1200V1038L46 1037ZM88 249L374 951H595L304 249H88Z" />
<glyph unicode="{" horiz-adv-x="677" d="M617 -403Q506 -403 416 -369T272 -259T218 -60Q218 -36 219 9T222 110T226 218T229 312T231 370Q231 451 204 474T127 497H60V698H127Q177 698 204 721T231 825Q231 842 230 883T227 977T223 1086T220 1188T219 1257Q219
1381 272 1456T415 1566T617 1600V1490Q567 1490 525 1459T457 1375T431 1257Q431 1237 432 1201T434 1120T438 1031T441 949T442 889Q442 781 401 708T277 617V581Q360 564 401 490T442 309Q442 286 441 249T438 166T435 77T432 -3T431 -60Q431 -125 456 -177T524
-261T617 -292V-403Z" />
<glyph unicode="|" horiz-adv-x="402" d="M93 1820H309V-240H93V1820Z" />
<glyph unicode="}" horiz-adv-x="664" d="M47 -403V-292Q98 -292 140 -261T207 -178T233 -60Q233 -40 232 -4T230 77T227 166T224 248T223 309Q223 416 264 490T388 581V617Q305 634 264 707T223 889Q223 911 224 948T226 1031T229 1120T232 1200T233 1257Q233
1322 208 1374T140 1458T47 1490V1600Q158 1600 248 1566T392 1457T445 1257Q445 1234 444 1188T442 1087T438 978T435 883T433 825Q433 744 460 721T537 698H604V497H537Q488 497 461 474T433 370Q433 353 434 312T438 218T442 110T445 10T446 -60Q446 -183 393
-258T249 -368T47 -403Z" />
<glyph unicode="~" horiz-adv-x="992" d="M650 610Q594 611 553 630T479 675T412 720T340 744Q287 748 254 717T214 626H93Q104 775 173 840T347 901Q409 898 450 879T523 834T585 790T655 770Q710 767 742 795T778 875H899Q892 734 825 670T650 610Z" />
<glyph unicode="&#xa0;" horiz-adv-x="427" />
<glyph unicode="&#xa1;" horiz-adv-x="455" d="M149 822H307L338 -9V-400H118V-9L149 822ZM86 1200H368V971H86V1200Z" />
<glyph unicode="&#xa2;" horiz-adv-x="799" d="M362 184Q220 195 155 264T81 483Q79 540 78 622T77 795T78 970T81 1114Q89 1265 155 1335T362 1416V1247Q329 1239 314 1216T298 1146Q296 1057 295 972T294 802T295 634T298 461Q299 413 314 388T362 354V184ZM311
0V122H500V0H311ZM456 184V353Q488 363 503 388T519 461Q521 492 521 537T519 639H730Q732 611 733 565T732 483Q725 334 661 264T456 184ZM519 965Q520 990 520 1025T521 1093T519 1146Q518 1192 503 1215T456 1246V1416Q597 1406 661 1337T732 1122Q733 1086
733 1040T730 965H519ZM311 1477V1600H500V1477H311Z" />
<glyph unicode="&#xa3;" horiz-adv-x="913" d="M193 285Q210 335 219 409T229 587Q229 638 225 681T215 764H95V874H188Q173 934 159 994T135 1125T125 1287Q127 1432 196 1517T418 1614V1433Q380 1424 361 1397T341 1323Q341 1232 356 1152T390 991T423 820T438
619Q438 510 421 427T373 285H193ZM132 0V192H820V0H132ZM504 764Q501 794 498 821T489 874H591V764H504ZM586 1022Q587 1055 587 1094T588 1173T589 1251T588 1323Q587 1370 569 1397T512 1433V1615Q662 1605 730 1528T804 1285Q805 1250 805 1202T804 1106T802
1022H586Z" />
<glyph unicode="&#xa4;" horiz-adv-x="1096" d="M794 1217L713 1304L915 1525L1003 1444L794 1217ZM191 53L98 132L287 352L357 251L191 53ZM898 53L730 249L800 352L988 133L898 53ZM299 1217L96 1450L185 1528L383 1302L299 1217ZM187 500Q185 558 184 631T182
784T183 939T187 1074Q195 1239 258 1315T474 1402V1233Q438 1224 421 1198T403 1125Q400 1038 399 954T398 787T399 620T403 449Q404 402 421 376T474 340V171Q322 180 259 257T187 500ZM568 171V339Q606 348 622 374T641 449Q643 537 645 620T647 787T645 954T641
1125Q639 1173 623 1199T568 1234V1402Q672 1396 733 1360T823 1254T857 1074Q859 1016 860 942T862 789T861 635T857 500Q852 390 823 320T733 213T568 171Z" />
<glyph unicode="&#xa5;" horiz-adv-x="806" d="M112 272V383H691V272H112ZM112 479V589H691V479H112ZM287 0V400V402L28 1600H249L328 1180L377 716H573L503 402V400V0H287ZM431 784L477 1180L556 1600H778L599 784H431Z" />
<glyph unicode="&#xa6;" horiz-adv-x="402" d="M93 1820H309V1016H93V1820ZM93 536H309V-240H93V536Z" />
<glyph unicode="&#xa7;" horiz-adv-x="824" d="M369 162Q273 189 214 223T126 309T96 438Q94 509 94 567T96 703Q98 790 133 844T221 922V959Q168 980 134 1022T95 1153Q93 1195 93 1246T96 1332Q105 1432 131 1489T213 1572T369 1602V1422Q337 1417 324 1398T307
1332Q305 1304 304 1247T304 1153Q307 1101 317 1070T369 1024V808Q334 796 319 768T299 703Q295 649 295 574T299 444Q304 407 319 379T369 338V162ZM519 1138Q520 1170 521 1208T522 1279T520 1332Q517 1377 505 1397T462 1422V1602Q598 1592 655 1523T718 1309Q720
1273 720 1230T716 1138H519ZM462 -415V-245Q496 -236 511 -211T527 -139Q528 -102 528 -62T528 14Q527 64 516 95T462 138V336Q500 346 514 376T533 444Q536 482 537 528T537 620T533 703Q530 741 515 770T462 810V1000Q592 969 656 901T728 697Q732 616 732 561T727
438Q722 364 689 316T606 245V214Q663 191 695 138T730 7Q731 -27 730 -68T727 -139Q721 -234 695 -292T612 -380T462 -415ZM369 -416Q275 -412 217 -385T132 -299T100 -139Q99 -115 99 -80T100 -13T102 39H293Q292 2 292 -31T291 -91T292 -139Q294 -191 312 -216T369
-249V-416Z" />
<glyph unicode="&#xa8;" horiz-adv-x="626" d="M373 1280V1434H527V1280H373ZM127 1280V1434H280V1280H127Z" />
<glyph unicode="&#xa9;" horiz-adv-x="1273" d="M93 600Q93 893 220 1045T597 1209V1101Q405 1090 310 965T214 600Q214 360 309 235T597 99V-9Q347 2 220 154T93 600ZM415 413Q414 445 413 492T412 592T413 694T415 779Q420 882 462 931T597 987V875Q574 868
564 851T553 798Q550 724 550 660T550 533T553 398Q554 362 564 345T597 320V207Q505 215 463 263T415 413ZM677 -9V99Q867 110 963 235T1059 600Q1059 839 963 964T677 1101V1209Q926 1198 1053 1046T1180 600Q1180 307 1054 155T677 -9ZM677 207V319Q700 326
710 344T722 398Q723 418 723 435T721 486H855Q857 469 857 452T857 413Q851 312 811 264T677 207ZM677 987Q770 980 810 932T857 785Q858 765 858 748T855 715H721Q723 735 723 758T722 798Q722 834 712 851T677 875V987Z" />
<glyph unicode="&#xaa;" horiz-adv-x="715" d="M453 765V1413Q452 1437 445 1453T420 1479V1615Q535 1606 577 1549T622 1374V765H453ZM95 941Q94 956 94 972T94 1006Q104 1114 171 1165T359 1254V1142Q310 1119 289 1090T263 1006Q262 992 262 979T263 954Q269
912 294 894T359 880V771Q296 749 240 760T144 817T95 941ZM119 1294Q118 1302 118 1323T117 1367T117 1400Q123 1502 168 1554T326 1615V1483Q307 1476 297 1461T284 1416Q283 1408 283 1382T284 1329T285 1294H119Z" />
<glyph unicode="&#xab;" horiz-adv-x="673" d="M562 202L276 522V729L562 1049V843L371 626L562 409V202ZM574 202L288 522V729L574 1049V843L383 626L574 409V202Z" />
<glyph unicode="&#xac;" horiz-adv-x="935" d="M678 476V820H93V985H842V476H678Z" />
<glyph unicode="&#xad;" horiz-adv-x="763" d="M60 642V834H703V642H60Z" />
<glyph unicode="&#xae;" horiz-adv-x="863" d="M387 1003Q242 1015 168 1109T93 1375Q93 1548 167 1642T387 1749V1680Q272 1668 217 1594T162 1375Q162 1231 217 1158T387 1072V1003ZM333 1176V1600H410V1176H333ZM476 1176Q477 1208 477 1241T474 1302Q472 1332
450 1339V1410Q475 1415 475 1445Q476 1459 476 1473T475 1503Q475 1527 450 1531V1600Q502 1598 526 1575T553 1498Q553 1486 553 1476T553 1453Q552 1422 538 1404T495 1378V1366Q524 1360 537 1342T551 1291Q552 1274 553 1257T554 1220T553 1176H476ZM480 1003V1072Q594
1084 648 1157T702 1375Q702 1519 648 1593T480 1680V1748Q623 1736 697 1642T771 1375Q771 1204 697 1110T480 1003Z" />
<glyph unicode="&#xaf;" horiz-adv-x="846" d="M139 1390H690V1280H139V1390Z" />
<glyph unicode="&#xb0;" horiz-adv-x="624" d="M273 1186Q197 1200 145 1260T93 1400Q93 1480 145 1541T273 1616V1520Q235 1508 211 1476T186 1400Q186 1359 210 1327T273 1282V1186ZM353 1186V1282Q390 1294 414 1326T438 1400Q438 1442 414 1475T353 1520V1616Q428
1602 479 1541T531 1400Q531 1322 480 1261T353 1186Z" />
<glyph unicode="&#xb1;" horiz-adv-x="975" d="M406 511V663H93V827H406V1020H570V827H882V663H570V511H406ZM93 286V421H882V286H93Z" />
<glyph unicode="&#xb2;" horiz-adv-x="535" d="M63 879Q62 924 62 948T62 990T63 1031Q67 1107 106 1157T212 1241L278 1275Q305 1291 312 1308T323 1354Q325 1373 325 1395T323 1438Q323 1455 311 1466V1606Q394 1597 436 1550T480 1419Q480 1410 480 1400T481
1379T481 1354Q480 1281 444 1237T340 1159L261 1122Q247 1112 236 1093T225 1049L227 879H63ZM307 879L305 1017H465V879H307ZM66 1322Q65 1344 64 1370T64 1419Q67 1503 110 1550T231 1606V1468Q221 1458 220 1439Q217 1407 218 1375T220 1322H66Z" />
<glyph unicode="&#xb3;" horiz-adv-x="546" d="M311 872V1006Q329 1018 330 1046Q330 1068 330 1090T330 1135Q330 1163 315 1177T269 1191H170L166 1306L233 1418H407L339 1312Q409 1302 448 1260T488 1138Q488 1124 488 1108T488 1076T488 1049Q487 971 442
926T311 872ZM231 873Q147 882 102 927T56 1049Q56 1060 56 1069T55 1089T57 1116H213Q212 1098 212 1081T212 1050Q213 1020 231 1008V873ZM70 1462V1600H477V1462H70Z" />
<glyph unicode="&#xb4;" horiz-adv-x="483" d="M79 1280L246 1532H404L230 1280H79Z" />
<glyph unicode="&#xb5;" horiz-adv-x="899" d="M96 -400L93 1200H309L311 253Q311 192 335 168T409 144Q438 144 467 156V35Q443 13 417 1T359 -15Q345 -15 333 -13T312 -5V-400H96ZM590 0Q579 23 570 77T560 220V1200H776V220Q776 148 783 91T806 0H590Z" />
<glyph unicode="&#xb6;" horiz-adv-x="1008" d="M498 -200V750H431Q311 750 240 783T136 889T95 1081Q94 1109 94 1143T93 1211T95 1272Q101 1390 134 1462T239 1567T431 1600H632V-200H498ZM698 -200V1600H833V-200H698ZM730 1479V1600H915V1479H730Z" />
<glyph unicode="&#xb7;" horiz-adv-x="340" d="M86 751V918H254V751H86Z" />
<glyph unicode="&#xb8;" horiz-adv-x="436" d="M76 -299V-192H137Q191 -192 213 -170T228 -95L212 0H328L343 -95Q359 -202 309 -250T137 -299H76Z" />
<glyph unicode="&#xb9;" horiz-adv-x="370" d="M128 881V1468H44L42 1522L163 1601H286V881H128Z" />
<glyph unicode="&#xba;" horiz-adv-x="726" d="M98 1000Q97 1019 96 1055T95 1135T94 1225T95 1308T98 1371Q108 1494 154 1550T313 1615V1481Q291 1473 281 1457T269 1413Q265 1331 264 1262T263 1121T269 958Q270 930 280 914T313 889V755Q202 764 153 820T98
1000ZM406 754V886Q434 892 446 910T459 958Q462 1026 463 1082T464 1191T463 1297T459 1413Q458 1443 446 1460T406 1484V1615Q527 1606 575 1548T630 1371Q631 1347 632 1309T633 1225T634 1136T633 1055T630 1000Q624 921 603 869T535 788T406 754Z" />
<glyph unicode="&#xbb;" horiz-adv-x="673" d="M368 202V409L559 626L368 843V1049L653 729V522L368 202ZM99 202V409L290 626L99 843V1049L385 729V522L99 202Z" />
<glyph unicode="&#xbc;" horiz-adv-x="993" d="M128 881V1468H44L42 1522L163 1601H286V881H128ZM-141 0L743 1600H896L10 0H-141ZM417 171V302L492 571H637L572 307H596V171H417ZM656 0L657 720H804V0H656ZM864 171V307H951V171H864Z" />
<glyph unicode="&#xbd;" horiz-adv-x="944" d="M128 881V1468H44L42 1522L163 1601H286V881H128ZM-141 0L743 1600H896L10 0H-141ZM472 0Q471 45 471 69T471 111T472 152Q476 228 515 278T621 362L687 396Q714 412 721 429T732 475Q734 494 734 516T732 559Q732
576 720 587V727Q803 718 845 671T889 540Q889 531 889 521T890 500T890 475Q889 402 853 358T749 280L670 243Q656 233 645 214T634 170L636 0H472ZM716 0L714 138H874V0H716ZM475 443Q474 465 473 491T473 540Q476 624 519 671T640 727V589Q630 579 629 560Q626
528 627 496T629 443H475Z" />
<glyph unicode="&#xbe;" horiz-adv-x="1224" d="M311 872V1006Q329 1018 330 1046Q330 1068 330 1090T330 1135Q330 1163 315 1177T269 1191H170L166 1306L233 1418H407L339 1312Q409 1302 448 1260T488 1138Q488 1124 488 1108T488 1076T488 1049Q487 971 442
926T311 872ZM231 873Q147 882 102 927T56 1049Q56 1060 56 1069T55 1089T57 1116H213Q212 1098 212 1081T212 1050Q213 1020 231 1008V873ZM70 1462V1600H477V1462H70ZM90 0L974 1600H1127L241 0H90ZM647 171V302L722 571H867L802 307H826V171H647ZM886 0L887
720H1034V0H886ZM1094 171V307H1181V171H1094Z" />
<glyph unicode="&#xbf;" horiz-adv-x="803" d="M507 820L512 634Q516 562 506 513T464 426T375 354L338 335Q313 322 301 296T285 233T281 147V-125Q281 -171 301 -198T361 -235V-417Q204 -408 135 -330T65 -88Q65 -21 65 21T65 92T65 147Q66 244 80 305T118 400T172
455T233 489L276 511Q317 531 325 565T336 635L343 820H507ZM736 176Q737 136 738 93T739 4T738 -87Q732 -252 666 -329T454 -416V-234Q489 -223 506 -196T525 -125Q530 -49 530 26T527 176H736ZM565 1200V971H283V1200H565Z" />
<glyph unicode="&#xc0;" horiz-adv-x="830" d="M32 0L228 1600H605L629 1408H389L357 915L319 591H459L409 399H305L254 0H32ZM576 0L477 917L454 1328H634L798 0H576ZM312 1680L152 1932H309L462 1680H312Z" />
<glyph unicode="&#xc1;" horiz-adv-x="830" d="M32 0L228 1600H605L629 1408H389L357 915L319 591H459L409 399H305L254 0H32ZM576 0L477 917L454 1328H634L798 0H576ZM339 1680L506 1932H664L490 1680H339Z" />
<glyph unicode="&#xc2;" horiz-adv-x="830" d="M32 0L228 1600H605L629 1408H389L357 915L319 591H459L409 399H305L254 0H32ZM576 0L477 917L454 1328H634L798 0H576ZM196 1682L343 1934H473L619 1682H474L408 1808L341 1682H196Z" />
<glyph unicode="&#xc3;" horiz-adv-x="830" d="M32 0L228 1600H605L629 1408H389L357 915L319 591H459L409 399H305L254 0H32ZM576 0L477 917L454 1328H634L798 0H576ZM577 1843H666Q663 1747 618 1703T499 1660Q450 1662 423 1683T374 1725T323 1748Q293 1750
273 1732T248 1672H160Q167 1778 215 1821T333 1862Q371 1860 394 1847T433 1817T465 1788T504 1775Q540 1774 558 1792T577 1843Z" />
<glyph unicode="&#xc4;" horiz-adv-x="830" d="M32 0L228 1600H605L629 1408H389L357 915L319 591H459L409 399H305L254 0H32ZM576 0L477 917L454 1328H634L798 0H576ZM455 1680V1834H609V1680H455ZM209 1680V1834H362V1680H209Z" />
<glyph unicode="&#xc5;" horiz-adv-x="830" d="M32 0L228 1600H605L629 1408H389L357 915L319 591H459L409 399H305L254 0H32ZM576 0L477 917L454 1328H634L798 0H576ZM408 1672Q337 1672 286 1723T234 1847Q234 1919 285 1970T408 2021Q481 2021 532 1970T583
1847Q583 1774 532 1723T408 1672ZM408 1789Q433 1789 450 1805T467 1847Q467 1871 450 1888T408 1905Q384 1905 368 1888T351 1847Q351 1822 367 1806T408 1789Z" />
<glyph unicode="&#xc6;" horiz-adv-x="1159" d="M329 1600H1114V1408H494L435 888L379 591H502L448 399H340L267 0H32L329 1600ZM542 0V1315H758V0H542ZM851 906H1094V714H851V906ZM851 0V192H1114V0H851Z" />
<glyph unicode="&#xc7;" horiz-adv-x="839" d="M380 -16Q222 -7 155 70T85 315Q83 427 82 550T81 800T82 1050T85 1287Q87 1433 157 1518T380 1614V1433Q341 1425 322 1398T301 1323Q297 1196 296 1065T294 800T295 535T301 277Q303 229 321 202T380 165V-16ZM474
-16V166Q514 175 534 202T555 277Q556 322 556 377T556 488T554 588H771Q773 522 773 452T772 315Q766 150 697 72T474 -16ZM546 1022Q547 1066 547 1119T548 1225T547 1323Q546 1369 528 1396T474 1432V1614Q623 1604 690 1527T764 1285Q765 1250 765 1202T764
1106T762 1022H546ZM228 -366V-259H289Q343 -259 365 -237T380 -162L364 -67H480L495 -162Q511 -269 461 -317T289 -366H228Z" />
<glyph unicode="&#xc8;" horiz-adv-x="709" d="M93 0V1600H309V0H93ZM401 0V192H664V0H401ZM401 714V906H644V714H401ZM401 1408V1600H664V1408H401ZM282 1680L122 1932H279L432 1680H282Z" />
<glyph unicode="&#xc9;" horiz-adv-x="709" d="M93 0V1600H309V0H93ZM401 0V192H664V0H401ZM401 714V906H644V714H401ZM401 1408V1600H664V1408H401ZM308 1680L475 1932H633L459 1680H308Z" />
<glyph unicode="&#xca;" horiz-adv-x="709" d="M93 0V1600H309V0H93ZM401 0V192H664V0H401ZM401 714V906H644V714H401ZM401 1408V1600H664V1408H401ZM166 1682L313 1934H443L589 1682H444L378 1808L311 1682H166Z" />
<glyph unicode="&#xcb;" horiz-adv-x="709" d="M93 0V1600H309V0H93ZM401 0V192H664V0H401ZM401 714V906H644V714H401ZM401 1408V1600H664V1408H401ZM425 1680V1834H579V1680H425ZM179 1680V1834H332V1680H179Z" />
<glyph unicode="&#xcc;" horiz-adv-x="402" d="M93 0V1600H309V0H93ZM104 1680L-56 1932H101L254 1680H104Z" />
<glyph unicode="&#xcd;" horiz-adv-x="402" d="M93 0V1600H309V0H93ZM131 1680L298 1932H456L282 1680H131Z" />
<glyph unicode="&#xce;" horiz-adv-x="402" d="M93 0V1600H309V0H93ZM-12 1682L135 1934H265L411 1682H266L200 1808L133 1682H-12Z" />
<glyph unicode="&#xcf;" horiz-adv-x="402" d="M93 0V1600H309V0H93ZM247 1680V1834H401V1680H247ZM1 1680V1834H154V1680H1Z" />
<glyph unicode="&#xd0;" horiz-adv-x="942" d="M93 946H293V780H93V946ZM466 946H567V780H466V946ZM180 0V1600H396V0H180ZM489 0V192H509Q575 192 607 222T641 315Q643 437 644 558T646 801T645 1043T641 1287Q640 1348 608 1378T510 1408H489V1600H510Q692 1600
773 1522T857 1262Q860 1097 861 949T861 653T857 339Q854 158 773 79T509 0H489Z" />
<glyph unicode="&#xd1;" horiz-adv-x="946" d="M501 0L399 549L299 1409H93V1600H431L526 1092L650 192H853V0H501ZM93 0V1325H240L285 552L302 0H93ZM706 277L653 1075L643 1600H853V277H706ZM645 1843H734Q731 1747 686 1703T567 1660Q518 1662 491 1683T442
1725T391 1748Q361 1750 341 1732T316 1672H228Q235 1778 283 1821T401 1862Q439 1860 462 1847T501 1817T533 1788T572 1775Q608 1774 626 1792T645 1843Z" />
<glyph unicode="&#xd2;" horiz-adv-x="856" d="M382 -16Q227 -7 158 70T85 314Q83 434 82 556T81 800T82 1044T85 1287Q89 1452 158 1529T382 1616V1434Q342 1425 323 1399T302 1325Q298 1203 296 1071T294 803T296 534T302 276Q304 229 323 202T382 166V-16ZM475
-16V166Q515 175 534 202T554 276Q558 400 560 533T562 803T560 1071T554 1325Q553 1372 534 1398T475 1434V1616Q629 1606 697 1529T769 1287Q773 1165 774 1043T776 799T775 556T769 314Q765 149 697 72T475 -16ZM331 1680L171 1932H328L481 1680H331Z" />
<glyph unicode="&#xd3;" horiz-adv-x="856" d="M382 -16Q227 -7 158 70T85 314Q83 434 82 556T81 800T82 1044T85 1287Q89 1452 158 1529T382 1616V1434Q342 1425 323 1399T302 1325Q298 1203 296 1071T294 803T296 534T302 276Q304 229 323 202T382 166V-16ZM475
-16V166Q515 175 534 202T554 276Q558 400 560 533T562 803T560 1071T554 1325Q553 1372 534 1398T475 1434V1616Q629 1606 697 1529T769 1287Q773 1165 774 1043T776 799T775 556T769 314Q765 149 697 72T475 -16ZM358 1680L525 1932H683L509 1680H358Z" />
<glyph unicode="&#xd4;" horiz-adv-x="856" d="M382 -16Q227 -7 158 70T85 314Q83 434 82 556T81 800T82 1044T85 1287Q89 1452 158 1529T382 1616V1434Q342 1425 323 1399T302 1325Q298 1203 296 1071T294 803T296 534T302 276Q304 229 323 202T382 166V-16ZM475
-16V166Q515 175 534 202T554 276Q558 400 560 533T562 803T560 1071T554 1325Q553 1372 534 1398T475 1434V1616Q629 1606 697 1529T769 1287Q773 1165 774 1043T776 799T775 556T769 314Q765 149 697 72T475 -16ZM215 1682L362 1934H492L638 1682H493L427 1808L360
1682H215Z" />
<glyph unicode="&#xd5;" horiz-adv-x="856" d="M382 -16Q227 -7 158 70T85 314Q83 434 82 556T81 800T82 1044T85 1287Q89 1452 158 1529T382 1616V1434Q342 1425 323 1399T302 1325Q298 1203 296 1071T294 803T296 534T302 276Q304 229 323 202T382 166V-16ZM475
-16V166Q515 175 534 202T554 276Q558 400 560 533T562 803T560 1071T554 1325Q553 1372 534 1398T475 1434V1616Q629 1606 697 1529T769 1287Q773 1165 774 1043T776 799T775 556T769 314Q765 149 697 72T475 -16ZM596 1843H685Q682 1747 637 1703T518 1660Q469
1662 442 1683T393 1725T342 1748Q312 1750 292 1732T267 1672H179Q186 1778 234 1821T352 1862Q390 1860 413 1847T452 1817T484 1788T523 1775Q559 1774 577 1792T596 1843Z" />
<glyph unicode="&#xd6;" horiz-adv-x="856" d="M382 -16Q227 -7 158 70T85 314Q83 434 82 556T81 800T82 1044T85 1287Q89 1452 158 1529T382 1616V1434Q342 1425 323 1399T302 1325Q298 1203 296 1071T294 803T296 534T302 276Q304 229 323 202T382 166V-16ZM475
-16V166Q515 175 534 202T554 276Q558 400 560 533T562 803T560 1071T554 1325Q553 1372 534 1398T475 1434V1616Q629 1606 697 1529T769 1287Q773 1165 774 1043T776 799T775 556T769 314Q765 149 697 72T475 -16ZM474 1680V1834H628V1680H474ZM228 1680V1834H381V1680H228Z"
/>
<glyph unicode="&#xd7;" horiz-adv-x="861" d="M209 407L93 524L315 745L93 967L209 1082L430 861L652 1082L768 967L547 745L768 524L652 407L430 629L209 407Z" />
<glyph unicode="&#xd8;" horiz-adv-x="856" d="M362 496V778L522 1033V751L362 496ZM382 -16Q227 -7 158 70T85 314Q83 434 82 556T81 800T82 1044T85 1287Q89 1452 158 1529T382 1616V1434Q342 1425 323 1399T302 1325Q298 1203 296 1071T294 803T296 534T302
276Q304 229 323 202T382 166V-16ZM475 -16V166Q515 175 534 202T554 276Q558 400 560 533T562 803T560 1071T554 1325Q553 1372 534 1398T475 1434V1616Q629 1606 697 1529T769 1287Q773 1165 774 1043T776 799T775 556T769 314Q765 149 697 72T475 -16Z" />
<glyph unicode="&#xd9;" horiz-adv-x="839" d="M79 314Q75 634 75 957T79 1600H295Q292 1387 291 1163T291 714T294 276Q294 230 314 203T373 166V-16Q218 -6 150 71T79 314ZM467 -16V166Q506 176 525 203T544 276Q546 489 547 713T548 1162T544 1600H760Q765
1281 765 958T760 314Q758 149 690 72T467 -16ZM323 1680L163 1932H320L473 1680H323Z" />
<glyph unicode="&#xda;" horiz-adv-x="839" d="M79 314Q75 634 75 957T79 1600H295Q292 1387 291 1163T291 714T294 276Q294 230 314 203T373 166V-16Q218 -6 150 71T79 314ZM467 -16V166Q506 176 525 203T544 276Q546 489 547 713T548 1162T544 1600H760Q765
1281 765 958T760 314Q758 149 690 72T467 -16ZM350 1680L517 1932H675L501 1680H350Z" />
<glyph unicode="&#xdb;" horiz-adv-x="839" d="M79 314Q75 634 75 957T79 1600H295Q292 1387 291 1163T291 714T294 276Q294 230 314 203T373 166V-16Q218 -6 150 71T79 314ZM467 -16V166Q506 176 525 203T544 276Q546 489 547 713T548 1162T544 1600H760Q765
1281 765 958T760 314Q758 149 690 72T467 -16ZM207 1682L354 1934H484L630 1682H485L419 1808L352 1682H207Z" />
<glyph unicode="&#xdc;" horiz-adv-x="839" d="M79 314Q75 634 75 957T79 1600H295Q292 1387 291 1163T291 714T294 276Q294 230 314 203T373 166V-16Q218 -6 150 71T79 314ZM467 -16V166Q506 176 525 203T544 276Q546 489 547 713T548 1162T544 1600H760Q765
1281 765 958T760 314Q758 149 690 72T467 -16ZM466 1680V1834H620V1680H466ZM220 1680V1834H373V1680H220Z" />
<glyph unicode="&#xdd;" horiz-adv-x="806" d="M287 0V400V402L28 1600H249L328 1180L377 716H573L503 402V400V0H287ZM431 784L477 1180L556 1600H778L599 784H431ZM318 1680L485 1932H643L469 1680H318Z" />
<glyph unicode="&#xde;" horiz-adv-x="817" d="M403 301V493H420Q486 493 517 523T551 614Q555 679 556 748T556 887T551 1021Q548 1082 517 1112T421 1142H403V1334H421Q601 1334 681 1259T768 1010Q772 901 772 812T768 625Q762 452 681 377T420 301H403ZM93
0V1600H309V0H93Z" />
<glyph unicode="&#xdf;" horiz-adv-x="858" d="M96 0V1271Q96 1381 127 1451T223 1557T391 1599V1417Q351 1408 333 1379T313 1301L312 0H96ZM397 0V192H437Q501 192 533 225T567 327Q569 383 569 433T567 540Q566 634 535 674T433 714H406V906H426Q491 906 523
947T557 1068Q558 1115 558 1149T558 1219T556 1300Q555 1347 538 1375T485 1415V1599Q638 1589 705 1513T773 1276Q774 1212 774 1162T772 1063Q767 967 732 912T622 830V790Q703 765 741 708T783 550Q785 509 785 474T786 402T783 324Q779 209 743 138T632 33T437
0H397Z" />
<glyph unicode="&#xe0;" horiz-adv-x="823" d="M67 242Q66 264 66 290T66 338Q71 414 97 471T177 573T322 659Q348 671 373 681T423 702V556Q412 550 400 543T375 526Q320 493 302 445T280 338Q279 319 279 299T280 259Q285 203 312 174T387 144Q405 144 423 150V28Q379
-14 301 -14Q186 -14 132 46T67 242ZM97 765Q96 789 95 837T95 922Q101 1065 162 1136T370 1216V1048Q339 1041 324 1017T307 946Q306 927 306 893T305 824T307 765H97ZM517 0V939Q517 981 505 1007T464 1043V1216Q616 1206 674 1129T732 890L730 0H517ZM319 1280L159
1532H316L469 1280H319Z" />
<glyph unicode="&#xe1;" horiz-adv-x="823" d="M67 242Q66 264 66 290T66 338Q71 414 97 471T177 573T322 659Q348 671 373 681T423 702V556Q412 550 400 543T375 526Q320 493 302 445T280 338Q279 319 279 299T280 259Q285 203 312 174T387 144Q405 144 423 150V28Q379
-14 301 -14Q186 -14 132 46T67 242ZM97 765Q96 789 95 837T95 922Q101 1065 162 1136T370 1216V1048Q339 1041 324 1017T307 946Q306 927 306 893T305 824T307 765H97ZM517 0V939Q517 981 505 1007T464 1043V1216Q616 1206 674 1129T732 890L730 0H517ZM345 1280L512
1532H670L496 1280H345Z" />
<glyph unicode="&#xe2;" horiz-adv-x="823" d="M67 242Q66 264 66 290T66 338Q71 414 97 471T177 573T322 659Q348 671 373 681T423 702V556Q412 550 400 543T375 526Q320 493 302 445T280 338Q279 319 279 299T280 259Q285 203 312 174T387 144Q405 144 423 150V28Q379
-14 301 -14Q186 -14 132 46T67 242ZM97 765Q96 789 95 837T95 922Q101 1065 162 1136T370 1216V1048Q339 1041 324 1017T307 946Q306 927 306 893T305 824T307 765H97ZM517 0V939Q517 981 505 1007T464 1043V1216Q616 1206 674 1129T732 890L730 0H517ZM203 1282L350
1534H480L626 1282H481L415 1408L348 1282H203Z" />
<glyph unicode="&#xe3;" horiz-adv-x="823" d="M67 242Q66 264 66 290T66 338Q71 414 97 471T177 573T322 659Q348 671 373 681T423 702V556Q412 550 400 543T375 526Q320 493 302 445T280 338Q279 319 279 299T280 259Q285 203 312 174T387 144Q405 144 423 150V28Q379
-14 301 -14Q186 -14 132 46T67 242ZM97 765Q96 789 95 837T95 922Q101 1065 162 1136T370 1216V1048Q339 1041 324 1017T307 946Q306 927 306 893T305 824T307 765H97ZM517 0V939Q517 981 505 1007T464 1043V1216Q616 1206 674 1129T732 890L730 0H517ZM584 1443H673Q670
1347 625 1303T506 1260Q457 1262 430 1283T381 1325T330 1348Q300 1350 280 1332T255 1272H167Q174 1378 222 1421T340 1462Q378 1460 401 1447T440 1417T472 1388T511 1375Q547 1374 565 1392T584 1443Z" />
<glyph unicode="&#xe4;" horiz-adv-x="823" d="M67 242Q66 264 66 290T66 338Q71 414 97 471T177 573T322 659Q348 671 373 681T423 702V556Q412 550 400 543T375 526Q320 493 302 445T280 338Q279 319 279 299T280 259Q285 203 312 174T387 144Q405 144 423 150V28Q379
-14 301 -14Q186 -14 132 46T67 242ZM97 765Q96 789 95 837T95 922Q101 1065 162 1136T370 1216V1048Q339 1041 324 1017T307 946Q306 927 306 893T305 824T307 765H97ZM517 0V939Q517 981 505 1007T464 1043V1216Q616 1206 674 1129T732 890L730 0H517ZM462 1280V1434H616V1280H462ZM216
1280V1434H369V1280H216Z" />
<glyph unicode="&#xe5;" horiz-adv-x="823" d="M67 242Q66 264 66 290T66 338Q71 414 97 471T177 573T322 659Q348 671 373 681T423 702V556Q412 550 400 543T375 526Q320 493 302 445T280 338Q279 319 279 299T280 259Q285 203 312 174T387 144Q405 144 423 150V28Q379
-14 301 -14Q186 -14 132 46T67 242ZM97 765Q96 789 95 837T95 922Q101 1065 162 1136T370 1216V1048Q339 1041 324 1017T307 946Q306 927 306 893T305 824T307 765H97ZM517 0V939Q517 981 505 1007T464 1043V1216Q616 1206 674 1129T732 890L730 0H517ZM415 1272Q344
1272 293 1323T241 1447Q241 1519 292 1570T415 1621Q488 1621 539 1570T590 1447Q590 1374 539 1323T415 1272ZM415 1389Q440 1389 457 1405T474 1447Q474 1471 457 1488T415 1505Q391 1505 375 1488T358 1447Q358 1422 374 1406T415 1389Z" />
<glyph unicode="&#xe6;" horiz-adv-x="1210" d="M73 767Q72 784 70 811T66 868T66 922Q72 1064 132 1134T335 1215V1046Q307 1038 294 1015T278 946Q277 927 277 893T276 824T278 765L73 767ZM775 -15Q584 -3 523 118H505Q486 75 459 46T397 2V150Q432 161 458
203T489 341L488 939Q488 983 475 1010T429 1046V1216Q486 1212 528 1199T601 1161Q661 1208 772 1215V1048Q701 1030 701 946V261Q701 211 719 186T775 153V-15ZM794 569V722H929Q930 801 930 861T928 946Q923 1028 866 1046V1215Q1005 1206 1068 1137T1140 922Q1141
896 1141 841T1142 714T1138 569H794ZM334 -13Q270 -8 211 19T112 101T68 242Q67 264 67 290T67 338Q74 430 119 492T242 599T424 679V533Q354 500 320 457T281 338Q280 320 280 300T281 259Q287 182 334 157V-13ZM868 -15V154Q898 164 912 189T928 261Q930 292
930 337T927 439H1138Q1140 411 1141 365T1140 283Q1132 134 1070 64T868 -15Z" />
<glyph unicode="&#xe7;" horiz-adv-x="799" d="M81 283Q79 340 78 422T77 595T78 770T81 914Q91 1065 156 1135T363 1216V1047Q329 1039 314 1016T298 946Q296 857 295 772T294 602T295 434T298 261Q299 213 314 188T363 154V-16Q220 -5 155 64T81 283ZM456 -16V153Q488
163 503 188T520 261Q521 292 521 337T519 439H730Q732 411 733 365T732 283Q725 134 661 64T456 -16ZM519 765Q520 790 520 825T521 893T520 946Q518 992 503 1015T456 1046V1216Q598 1206 662 1137T732 922Q733 886 733 840T730 765H519ZM228 -366V-259H289Q343
-259 365 -237T380 -162L364 -67H480L495 -162Q511 -269 461 -317T289 -366H228Z" />
<glyph unicode="&#xe8;" horiz-adv-x="801" d="M81 283Q79 340 78 422T77 595T78 770T81 914Q91 1065 156 1135T363 1215V1047Q330 1038 315 1014T298 946Q296 857 295 772T294 603T295 435T298 261Q299 213 314 188T363 154V-16Q220 -5 155 64T81 283ZM457 -16V153Q488
163 502 188T520 261Q522 292 522 337T519 439H730Q732 411 733 365T732 283Q725 134 661 64T457 -16ZM381 561V713H521Q522 767 522 813T522 894T520 946Q517 988 502 1012T457 1046V1215Q597 1206 660 1137T732 922Q733 896 733 839T734 708T730 561H381ZM310
1280L150 1532H307L460 1280H310Z" />
<glyph unicode="&#xe9;" horiz-adv-x="801" d="M81 283Q79 340 78 422T77 595T78 770T81 914Q91 1065 156 1135T363 1215V1047Q330 1038 315 1014T298 946Q296 857 295 772T294 603T295 435T298 261Q299 213 314 188T363 154V-16Q220 -5 155 64T81 283ZM457 -16V153Q488
163 502 188T520 261Q522 292 522 337T519 439H730Q732 411 733 365T732 283Q725 134 661 64T457 -16ZM381 561V713H521Q522 767 522 813T522 894T520 946Q517 988 502 1012T457 1046V1215Q597 1206 660 1137T732 922Q733 896 733 839T734 708T730 561H381ZM337
1280L504 1532H662L488 1280H337Z" />
<glyph unicode="&#xea;" horiz-adv-x="801" d="M81 283Q79 340 78 422T77 595T78 770T81 914Q91 1065 156 1135T363 1215V1047Q330 1038 315 1014T298 946Q296 857 295 772T294 603T295 435T298 261Q299 213 314 188T363 154V-16Q220 -5 155 64T81 283ZM457 -16V153Q488
163 502 188T520 261Q522 292 522 337T519 439H730Q732 411 733 365T732 283Q725 134 661 64T457 -16ZM381 561V713H521Q522 767 522 813T522 894T520 946Q517 988 502 1012T457 1046V1215Q597 1206 660 1137T732 922Q733 896 733 839T734 708T730 561H381ZM194
1282L341 1534H471L617 1282H472L406 1408L339 1282H194Z" />
<glyph unicode="&#xeb;" horiz-adv-x="801" d="M81 283Q79 340 78 422T77 595T78 770T81 914Q91 1065 156 1135T363 1215V1047Q330 1038 315 1014T298 946Q296 857 295 772T294 603T295 435T298 261Q299 213 314 188T363 154V-16Q220 -5 155 64T81 283ZM457 -16V153Q488
163 502 188T520 261Q522 292 522 337T519 439H730Q732 411 733 365T732 283Q725 134 661 64T457 -16ZM381 561V713H521Q522 767 522 813T522 894T520 946Q517 988 502 1012T457 1046V1215Q597 1206 660 1137T732 922Q733 896 733 839T734 708T730 561H381ZM453
1280V1434H607V1280H453ZM207 1280V1434H360V1280H207Z" />
<glyph unicode="&#xec;" horiz-adv-x="408" d="M96 0V1200H312V0H96ZM107 1280L-53 1532H104L257 1280H107Z" />
<glyph unicode="&#xed;" horiz-adv-x="408" d="M96 0V1200H312V0H96ZM134 1280L301 1532H459L285 1280H134Z" />
<glyph unicode="&#xee;" horiz-adv-x="408" d="M96 0V1200H312V0H96ZM247 1282L394 1534H524L670 1282H525L459 1408L392 1282H247Z" />
<glyph unicode="&#xef;" horiz-adv-x="408" d="M96 0V1200H312V0H96ZM506 1280V1434H660V1280H506ZM260 1280V1434H413V1280H260Z" />
<glyph unicode="&#xf0;" horiz-adv-x="851" d="M429 -17Q249 -17 169 60T81 315Q79 375 78 451T77 614T80 789Q82 925 149 1001T322 1078Q406 1078 459 1039T522 940Q537 933 557 910T576 866L555 787Q550 842 515 871T417 901Q359 901 329 873T296 785Q294 703
294 614T294 439T297 277Q299 219 331 190T427 161Q488 161 519 190T553 277Q557 389 556 527T553 786Q553 899 530 995T464 1172T358 1317T213 1433L329 1616Q442 1544 523 1458T657 1267T737 1031T770 740Q771 673 771 596T772 446T770 315Q765 196 730 123T622
17T429 -17ZM506 922L502 983H577V923L506 922ZM298 1156L259 1232L453 1328L499 1256L298 1156ZM564 1303L519 1377L695 1464L733 1387L564 1303Z" />
<glyph unicode="&#xf1;" horiz-adv-x="873" d="M96 0V1200H312V0H96ZM566 0V947Q565 1004 541 1030T466 1056Q450 1056 435 1053T405 1043V1157Q432 1186 466 1201T554 1217Q664 1217 722 1151T782 929V0H566ZM609 1443H698Q695 1347 650 1303T531 1260Q482 1262
455 1283T406 1325T355 1348Q325 1350 305 1332T280 1272H192Q199 1378 247 1421T365 1462Q403 1460 426 1447T465 1417T497 1388T536 1375Q572 1374 590 1392T609 1443Z" />
<glyph unicode="&#xf2;" horiz-adv-x="835" d="M82 314Q80 371 79 445T77 598T78 752T82 887Q91 1052 154 1129T370 1216V1046Q333 1037 317 1011T298 939Q296 851 295 767T293 600T294 433T298 262Q300 215 317 189T370 154V-16Q218 -6 155 71T82 314ZM464 -16V153Q501
162 518 188T536 262Q539 350 540 434T542 601T541 767T536 939Q535 987 519 1012T464 1047V1216Q567 1210 628 1174T718 1067T753 887Q755 829 756 756T757 603T756 449T753 314Q747 204 719 133T629 26T464 -16ZM322 1280L162 1532H319L472 1280H322Z" />
<glyph unicode="&#xf3;" horiz-adv-x="835" d="M82 314Q80 371 79 445T77 598T78 752T82 887Q91 1052 154 1129T370 1216V1046Q333 1037 317 1011T298 939Q296 851 295 767T293 600T294 433T298 262Q300 215 317 189T370 154V-16Q218 -6 155 71T82 314ZM464 -16V153Q501
162 518 188T536 262Q539 350 540 434T542 601T541 767T536 939Q535 987 519 1012T464 1047V1216Q567 1210 628 1174T718 1067T753 887Q755 829 756 756T757 603T756 449T753 314Q747 204 719 133T629 26T464 -16ZM348 1280L515 1532H673L499 1280H348Z" />
<glyph unicode="&#xf4;" horiz-adv-x="835" d="M82 314Q80 371 79 445T77 598T78 752T82 887Q91 1052 154 1129T370 1216V1046Q333 1037 317 1011T298 939Q296 851 295 767T293 600T294 433T298 262Q300 215 317 189T370 154V-16Q218 -6 155 71T82 314ZM464 -16V153Q501
162 518 188T536 262Q539 350 540 434T542 601T541 767T536 939Q535 987 519 1012T464 1047V1216Q567 1210 628 1174T718 1067T753 887Q755 829 756 756T757 603T756 449T753 314Q747 204 719 133T629 26T464 -16ZM205 1282L352 1534H482L628 1282H483L417 1408L350
1282H205Z" />
<glyph unicode="&#xf5;" horiz-adv-x="835" d="M82 314Q80 371 79 445T77 598T78 752T82 887Q91 1052 154 1129T370 1216V1046Q333 1037 317 1011T298 939Q296 851 295 767T293 600T294 433T298 262Q300 215 317 189T370 154V-16Q218 -6 155 71T82 314ZM464 -16V153Q501
162 518 188T536 262Q539 350 540 434T542 601T541 767T536 939Q535 987 519 1012T464 1047V1216Q567 1210 628 1174T718 1067T753 887Q755 829 756 756T757 603T756 449T753 314Q747 204 719 133T629 26T464 -16ZM587 1443H676Q673 1347 628 1303T509 1260Q460
1262 433 1283T384 1325T333 1348Q303 1350 283 1332T258 1272H170Q177 1378 225 1421T343 1462Q381 1460 404 1447T443 1417T475 1388T514 1375Q550 1374 568 1392T587 1443Z" />
<glyph unicode="&#xf6;" horiz-adv-x="835" d="M82 314Q80 371 79 445T77 598T78 752T82 887Q91 1052 154 1129T370 1216V1046Q333 1037 317 1011T298 939Q296 851 295 767T293 600T294 433T298 262Q300 215 317 189T370 154V-16Q218 -6 155 71T82 314ZM464 -16V153Q501
162 518 188T536 262Q539 350 540 434T542 601T541 767T536 939Q535 987 519 1012T464 1047V1216Q567 1210 628 1174T718 1067T753 887Q755 829 756 756T757 603T756 449T753 314Q747 204 719 133T629 26T464 -16ZM464 1280V1434H618V1280H464ZM218 1280V1434H371V1280H218Z"
/>
<glyph unicode="&#xf7;" horiz-adv-x="988" d="M93 663V827H895V663H93ZM405 941V1121H585V941H405ZM405 369V549H585V369H405Z" />
<glyph unicode="&#xf8;" horiz-adv-x="835" d="M357 416Q357 455 357 496T356 579L510 772Q510 731 510 689T511 605L357 416ZM82 314Q80 371 79 445T77 598T78 752T82 887Q91 1052 154 1129T370 1216V1046Q333 1037 317 1011T298 939Q296 851 295 767T293 600T294
433T298 262Q300 215 317 189T370 154V-16Q218 -6 155 71T82 314ZM464 -16V153Q501 162 518 188T536 262Q539 350 540 434T542 601T541 767T536 939Q535 987 519 1012T464 1047V1216Q567 1210 628 1174T718 1067T753 887Q755 829 756 756T757 603T756 449T753 314Q747
204 719 133T629 26T464 -16Z" />
<glyph unicode="&#xf9;" horiz-adv-x="857" d="M78 271V1200H294V253Q294 196 317 170T391 144Q421 144 451 157V36Q395 -17 311 -17Q202 -17 140 50T78 271ZM545 0V1200H761V0H545ZM320 1280L160 1532H317L470 1280H320Z" />
<glyph unicode="&#xfa;" horiz-adv-x="857" d="M78 271V1200H294V253Q294 196 317 170T391 144Q421 144 451 157V36Q395 -17 311 -17Q202 -17 140 50T78 271ZM545 0V1200H761V0H545ZM347 1280L514 1532H672L498 1280H347Z" />
<glyph unicode="&#xfb;" horiz-adv-x="857" d="M78 271V1200H294V253Q294 196 317 170T391 144Q421 144 451 157V36Q395 -17 311 -17Q202 -17 140 50T78 271ZM545 0V1200H761V0H545ZM204 1282L351 1534H481L627 1282H482L416 1408L349 1282H204Z" />
<glyph unicode="&#xfc;" horiz-adv-x="857" d="M78 271V1200H294V253Q294 196 317 170T391 144Q421 144 451 157V36Q395 -17 311 -17Q202 -17 140 50T78 271ZM545 0V1200H761V0H545ZM463 1280V1434H617V1280H463ZM217 1280V1434H370V1280H217Z" />
<glyph unicode="&#xfd;" horiz-adv-x="790" d="M246 0L55 1200H274L339 636L385 162H601L576 0H246ZM203 -414Q173 -414 137 -411T70 -402V-239Q95 -241 134 -243T202 -245Q276 -245 309 -221T341 -138L348 -92H561L555 -138Q550 -237 511 -298T396 -386T203 -414ZM442
255L474 636L531 1200H751L615 255H442ZM334 1280L501 1532H659L485 1280H334Z" />
<glyph unicode="&#xfe;" horiz-adv-x="861" d="M96 -400V1600H312V-400H96ZM405 151Q415 147 427 146T452 144Q503 144 532 170T563 253Q567 338 568 427T570 606T568 783T563 947Q561 1004 539 1030T466 1056Q435 1056 405 1045V1166Q431 1191 464 1204T547 1217Q657
1217 715 1151T779 929Q781 872 782 787T784 607T783 424T779 271Q773 117 710 50T536 -17Q459 -17 405 36V151Z" />
<glyph unicode="&#xff;" horiz-adv-x="790" d="M246 0L55 1200H274L339 636L385 162H601L576 0H246ZM203 -414Q173 -414 137 -411T70 -402V-239Q95 -241 134 -243T202 -245Q276 -245 309 -221T341 -138L348 -92H561L555 -138Q550 -237 511 -298T396 -386T203 -414ZM442
255L474 636L531 1200H751L615 255H442ZM451 1280V1434H605V1280H451ZM205 1280V1434H358V1280H205Z" />
<glyph unicode="&#x2013;" horiz-adv-x="950" d="M60 834H890V642H60V834Z" />
<glyph unicode="&#x2014;" horiz-adv-x="1588" d="M60 642V834H1528V642H60Z" />
<glyph unicode="&#x2018;" horiz-adv-x="456" d="M335 1600L235 1356H370V1124H86V1335L216 1600H335Z" />
<glyph unicode="&#x2019;" horiz-adv-x="456" d="M121 1124L221 1368H86V1600H370V1389L240 1124H121Z" />
<glyph unicode="&#x201a;" horiz-adv-x="444" d="M121 -244L221 0H86V232H370V22L240 -244H121Z" />
<glyph unicode="&#x201c;" horiz-adv-x="786" d="M679 1600L578 1356H713V1124H430V1335L560 1600H679ZM322 1600L222 1356H356V1124H73V1335L203 1600H322Z" />
<glyph unicode="&#x201d;" horiz-adv-x="786" d="M107 1124L207 1368H73V1600H356V1389L226 1124H107ZM464 1124L564 1368H430V1600H713V1389L583 1124H464Z" />
<glyph unicode="&#x201e;" horiz-adv-x="868" d="M121 -244L221 0H86V232H370V22L240 -244H121ZM533 -244L633 0H498V232H782V22L652 -244H533Z" />
<glyph unicode="&#x2022;" horiz-adv-x="508" d="M86 643V978H421V643H86Z" />
<glyph unicode="&#x2039;" horiz-adv-x="432" d="M346 202L60 522V729L346 1049V843L155 626L346 409V202Z" />
<glyph unicode="&#x203a;" horiz-adv-x="432" d="M86 202V409L278 626L86 843V1049L372 729V522L86 202Z" />
</font>
</defs>
</svg>
